<svg xmlns="http://www.w3.org/2000/svg" viewBox="0 0 500 500"><g id="freepik--background-complete--inject-6"><polygon points="58.83 25.91 58.83 215.36 243.59 215.36 361.73 215.36 361.73 25.91 58.83 25.91" style="fill:#fafafa"></polygon><rect x="58.83" y="37.03" width="302.9" height="18.82" style="fill:#ebebeb"></rect><rect x="58.83" y="24.42" width="302.9" height="13.07" style="fill:#f5f5f5"></rect><path d="M67.62,31.55a1.7,1.7,0,1,1-1.69-1.7A1.7,1.7,0,0,1,67.62,31.55Z" style="fill:#e0e0e0"></path><path d="M73.94,31.55a1.7,1.7,0,1,1-1.7-1.7A1.7,1.7,0,0,1,73.94,31.55Z" style="fill:#e0e0e0"></path><path d="M80.26,31.55a1.7,1.7,0,1,1-1.7-1.7A1.7,1.7,0,0,1,80.26,31.55Z" style="fill:#e0e0e0"></path><path d="M315.86,51H98.76a4.51,4.51,0,0,1-4.51-4.51h0a4.51,4.51,0,0,1,4.51-4.51h217.1a4.51,4.51,0,0,1,4.51,4.51h0A4.51,4.51,0,0,1,315.86,51Z" style="fill:#fff"></path><rect x="85.47" y="84.83" width="100.86" height="97.58" style="fill:#ebebeb"></rect><polygon points="93.29 174.06 121.19 123.85 144.02 155.94 157.88 138.9 178.51 174.06 93.29 174.06" style="fill:#f5f5f5"></polygon><circle cx="146.48" cy="114.08" r="7.26" style="fill:#f5f5f5"></circle><path d="M178.51,92.5,93.3,92.43c.1-.11-.92.92-.49.49v11c0,3.65,0,7.28,0,10.86q0,10.76,0,21c0,13.66,0,26.59,0,38.47v.42h.41l61.89-.21,17.28-.11,4.53-.05,1.15,0a1.49,1.49,0,0,0,.37,0,3.33,3.33,0,0,0-.42,0l-1.19,0-4.61,0-17.38-.11-61.2-.22c0-11.77,0-24.54.05-38q0-10.26,0-21V93.39l84.33-.07c.09,24.19.16,44.34.21,58.51.05,7.11.09,12.7.11,16.57,0,1.89,0,3.36.05,4.39,0,.48,0,.85,0,1.14s0,.39,0,.4a1.39,1.39,0,0,0,0-.35c0-.28,0-.64,0-1.1,0-1,0-2.45.05-4.31,0-3.85.06-9.41.11-16.48.05-14.31.12-34.7.21-59.18V92.5Z" style="fill:#f5f5f5"></path><polygon points="234.04 152.01 234.04 295.08 373.56 295.08 462.78 295.08 462.78 152.01 234.04 152.01" style="fill:#fafafa"></polygon><rect x="234.04" y="158.96" width="228.74" height="14.21" style="fill:#ebebeb"></rect><rect x="234.04" y="149.44" width="228.74" height="9.87" style="fill:#f5f5f5"></rect><circle cx="239.4" cy="154.82" r="1.28" style="fill:#e0e0e0"></circle><circle cx="244.17" cy="154.82" r="1.28" style="fill:#e0e0e0"></circle><circle cx="248.94" cy="154.82" r="1.28" style="fill:#e0e0e0"></circle><path d="M428.14,169.47H264.19a3.4,3.4,0,0,1-3.4-3.4h0a3.41,3.41,0,0,1,3.4-3.41h164a3.41,3.41,0,0,1,3.41,3.41h0A3.41,3.41,0,0,1,428.14,169.47Z" style="fill:#fff"></path><rect x="376.23" y="205.84" width="76.17" height="73.69" style="fill:#ebebeb"></rect><polygon points="382.14 273.22 403.21 235.3 420.44 259.54 430.92 246.67 446.5 273.22 382.14 273.22" style="fill:#f5f5f5"></polygon><path d="M427.78,227.93a5.48,5.48,0,1,1-5.48-5.48A5.48,5.48,0,0,1,427.78,227.93Z" style="fill:#f5f5f5"></path><path d="M446.5,211.63l-64.35,0-.37.37V228.5q0,8.12,0,15.88c0,10.31,0,20.07,0,29.05v.32h.32l46.73-.16,13.06-.08,3.42,0h.86l.29,0-.32,0-.9,0-3.49,0-13.12-.09-46.21-.16c0-8.89,0-18.53,0-28.73q0-7.75,0-15.88V212.31l63.69-.06c.06,18.27.11,33.48.15,44.19,0,5.36.07,9.59.08,12.51,0,1.43,0,2.53,0,3.32,0,.36,0,.64,0,.86a1.11,1.11,0,0,0,0,.3s0-.09,0-.27,0-.48,0-.82c0-.77,0-1.86,0-3.26,0-2.91,0-7.11.08-12.45,0-10.81.09-26.2.16-44.69v-.31Z" style="fill:#f5f5f5"></path><rect x="262.67" y="205.84" width="76.17" height="73.69" style="fill:#ebebeb"></rect><polygon points="268.58 273.22 289.65 235.3 306.88 259.54 317.35 246.67 332.93 273.22 268.58 273.22" style="fill:#f5f5f5"></polygon><path d="M314.22,227.93a5.48,5.48,0,1,1-5.48-5.48A5.48,5.48,0,0,1,314.22,227.93Z" style="fill:#f5f5f5"></path><path d="M332.93,211.63l-64.35,0c.07-.08-.69.69-.37.37v4.18c0,1.39,0,2.78,0,4.16v8.21q0,8.12,0,15.88c0,10.31,0,20.07,0,29.05v.32h.32l46.73-.16,13.05-.08,3.42,0h.87l.28,0-.31,0-.91,0-3.48,0-13.12-.09-46.22-.16c0-8.89,0-18.53,0-28.73q0-7.75,0-15.88V212.31l63.68-.06c.07,18.27.12,33.48.16,44.19,0,5.36.06,9.59.08,12.51,0,1.43,0,2.53,0,3.32,0,.36,0,.64,0,.86s0,.29,0,.3a1.39,1.39,0,0,0,0-.27c0-.21,0-.48,0-.82,0-.77,0-1.86,0-3.26,0-2.91.05-7.11.09-12.45,0-10.81.09-26.2.15-44.69v-.31Z" style="fill:#f5f5f5"></path><path d="M260.57,470.24c-1.54-1.32-5-5.51-2.33-10.38,1-1.79,3-2.67,4.91-3.46a19.9,19.9,0,0,0,5.38-2.78c2.91-2.49,3.72-6.61,5.66-9.92,2.22-3.8,6.37-6.65,10.75-6.45,5,.23,9.21,4.33,11.1,9s2,9.86,2,14.91c0,2.79-.1,5.94-2.15,7.82-1.89,1.74-4.74,1.76-7.3,1.68l-27.43-.84" style="fill:#f5f5f5"></path><path d="M313,394.81H240.89l13,77.49a8.67,8.67,0,0,0,6.16,6.9l.25.07c.22.05.42.12.64.16a8.94,8.94,0,0,0,1.47.17v.08l.35-.06h32.16a9.22,9.22,0,0,0,9.06-7.75l6.27-53.39.28-2.12h0L313,395.21Zm-13.61,49.43H292l.75-22.49h8.58Zm2.64-22.49h7.09l-2.64,22.49h-6.37Zm-21.15,47.42-.45-19.54h10.66l-.65,19.54Zm-11.53-19.54h10.36l.45,19.54h-9.29Zm.8,19.54H261.5c-.82-5.28-1.9-12.13-3.06-19.54h10.23ZM269,444.24l-1.75-22.49h11.89l.51,22.49Zm11.37,0-.52-22.49h12.23l-.74,22.49Zm-.64-27.88-.48-20.83h13.7l-.69,20.83Zm-.72,0H266.8l-1.62-20.83H278.5Zm-12.89,0H253.2c-.46-2.88-.89-5.6-1.28-8.05-1.35-8.42-1.85-11.59-2.13-12.78h14.68Zm.41,5.39,1.75,22.49H257.6c-.36-2.28-.73-4.59-1.09-6.9-.83-5.31-1.67-10.62-2.46-15.59Zm-9.63,22.49h-7l-3.77-22.49h7.19C254.43,428.7,255.64,436.43,256.87,444.24Zm.85,5.39c1.06,6.76,2.1,13.43,3.06,19.54h-6.69l-3.28-19.54Zm33.48,19.54.64-19.54H299l-1.67,19.54ZM293,416.36l.69-20.83h9.95l-1.78,20.83Zm-43.84-20.83c.28,1.5,1.6,9.7,3.36,20.83h-7.24l-3.49-20.83Zm54.48,73.64H298l1.66-19.54h6.2Zm6.2-52.81h-7.26l1.78-20.83h7.92Z" style="fill:#e0e0e0"></path></g></svg>
