<svg xmlns="http://www.w3.org/2000/svg" viewBox="0 0 500 500"><g id="freepik--Character--inject-6"><polygon points="77.62 480.15 68.66 480.15 65.34 439.85 75.89 439.85 77.62 480.15" style="fill:#263238"></polygon><polygon points="155.21 480.15 164.16 480.15 167.48 439.85 156.94 439.85 155.21 480.15" style="fill:#263238"></polygon><path d="M173.63,445,58.4,447.66l-3.51-74.44a12.78,12.78,0,0,1,12.77-13.38h98.18a12.78,12.78,0,0,1,12.75,13.67Z" style="fill:#455a64"></path><path d="M81.2,373.61a6.6,6.6,0,0,1-2-1.14,15.27,15.27,0,0,1-3.83-4.11,14.63,14.63,0,0,1-2.06-5.23,6.21,6.21,0,0,1-.13-2.32c.09,0,.15.88.49,2.25a17.11,17.11,0,0,0,2.14,5,17.82,17.82,0,0,0,3.62,4.1A22.5,22.5,0,0,1,81.2,373.61Z" style="fill:#fff"></path><path d="M135.68,359.05c.12.14-2.92,2.21-5.29,5.94a30.2,30.2,0,0,0-3.17,7.3,7.13,7.13,0,0,1,.38-2.34,19.19,19.19,0,0,1,2.35-5.24,19.76,19.76,0,0,1,3.77-4.31A7.48,7.48,0,0,1,135.68,359.05Z" style="fill:#fff"></path><path d="M179.54,373l-.32,0-.95,0-3.63.06-13.36.05c-11.28,0-26.86-.11-44.06.29-17.21.57-32.8.47-44.08.3-5.64-.09-10.2-.2-13.36-.29l-3.63-.13-.94,0-.32,0a2,2,0,0,1,.32,0h.95l3.63,0,13.35.13c11.28.08,26.86.12,44.07-.45,17.21-.4,32.8-.22,44.07-.14l13.36.12,3.63,0,.95,0A1.34,1.34,0,0,1,179.54,373Z" style="fill:#263238"></path><path d="M96.92,361a27.18,27.18,0,0,0-7.48,2.25A26.62,26.62,0,0,0,83.23,368a7.25,7.25,0,0,1,1.43-1.85,17.21,17.21,0,0,1,9.93-5.07A7.29,7.29,0,0,1,96.92,361Z" style="fill:#263238"></path><g style="opacity:0.30000000000000004"><path d="M82.15,359.84c3.41,3.81,9,5.48,14,6.25,9.11,1.38,18.43,2.13,27.51.58,5.82-1,11.58-2.92,17.47-2.52s12.08,3.26,17.9,1.61a12.2,12.2,0,0,0,7.35-5.94c.49-.91.79-2.19,0-2.85-.4-.34-1.27.83-1.79.79-27.3-2.08-55.17,4-82.48,2.08"></path></g><path d="M175.79,389.58a.75.75,0,0,1-.24,0l-.72,0c-.64,0-1.58,0-2.78.11A66.09,66.09,0,0,0,162,391.1a66.21,66.21,0,0,0-51.25,52c-.27,1.18-.37,2.11-.5,2.73,0,.29-.1.52-.13.71s-.06.25-.07.24,0-.08,0-.24,0-.43.09-.72c.09-.63.16-1.57.4-2.75a60.56,60.56,0,0,1,2.59-9.9,64.71,64.71,0,0,1,6.63-13.64,65,65,0,0,1,42.16-28.75A60.88,60.88,0,0,1,172,389.55c1.21-.07,2.15,0,2.79,0l.72,0A.64.64,0,0,1,175.79,389.58Z" style="fill:#fff"></path><g style="opacity:0.30000000000000004"><path d="M152.44,377.73a8.21,8.21,0,0,0,2.54,7,28.28,28.28,0,0,0,6.33,4.39c3.7,2.15,7.4,4.61,9.71,8.21,4.4,6.83,2.78,15.8,4.64,23.72,0,0,1.55-34.15,1.23-33.29"></path></g><path d="M102,374.73a.94.94,0,0,1,0,.27c0,.21,0,.48.05.8,0,.7.07,1.74,0,3.08a44.35,44.35,0,0,1-1.5,11.22,29.82,29.82,0,0,1-3,7.23,22.23,22.23,0,0,1-6,6.72,21,21,0,0,1-4.21,2.49A18.56,18.56,0,0,1,82.5,408a17.11,17.11,0,0,1-5.3,0l-1.33-.28c-.44-.11-.87-.27-1.31-.41a10.74,10.74,0,0,1-2.49-1.19,7.21,7.21,0,0,1-2-1.93,5.19,5.19,0,0,1-.93-2.62,4.35,4.35,0,0,1,.66-2.68A3.76,3.76,0,0,1,72,397.42a6,6,0,0,1,5,1.16,8.46,8.46,0,0,1,2.89,4,10.21,10.21,0,0,1-1,8.81,15.13,15.13,0,0,1-5.76,5.3,21.84,21.84,0,0,1-6.1,2.15,41,41,0,0,1-4.83.68c-1.34.12-2.37.17-3.08.2l-.79,0h-.28a.84.84,0,0,1,.27-.05l.8-.08,3.06-.29a44.82,44.82,0,0,0,4.79-.76,22.46,22.46,0,0,0,6-2.19,14.87,14.87,0,0,0,5.57-5.2,9.73,9.73,0,0,0,.88-8.42A8,8,0,0,0,76.7,399a5.56,5.56,0,0,0-4.56-1.06,3.21,3.21,0,0,0-2,1.32,3.8,3.8,0,0,0-.57,2.36,5.49,5.49,0,0,0,2.73,4.15,10.09,10.09,0,0,0,2.39,1.14c.42.13.83.29,1.26.4l1.28.27a16.4,16.4,0,0,0,5.14,0,18.22,18.22,0,0,0,4.76-1.43,21.11,21.11,0,0,0,4.13-2.42,22,22,0,0,0,5.89-6.56,30.06,30.06,0,0,0,3-7.11,46.39,46.39,0,0,0,1.65-11.12c0-1.34,0-2.37,0-3.08V375A.8.8,0,0,1,102,374.73Z" style="fill:#fff"></path><path d="M152.92,444a18.76,18.76,0,0,0,2.37-.81,11.93,11.93,0,0,0,5-4.44,16.34,16.34,0,0,0,2.26-9.67,9.29,9.29,0,0,0-1.88-5.46,4.57,4.57,0,0,0-5.54-1.18,3,3,0,0,0-1.49,2.48,4.27,4.27,0,0,0,.9,2.81,7.35,7.35,0,0,0,5.14,2.42,13.3,13.3,0,0,0,9.44-2.66,13.64,13.64,0,0,0,4.12-5.35c.63-1.49.78-2.39.83-2.37a4.59,4.59,0,0,1-.1.65,11.13,11.13,0,0,1-.54,1.8,13.38,13.38,0,0,1-4.08,5.55,13.56,13.56,0,0,1-9.72,2.86,7.83,7.83,0,0,1-5.5-2.59,4.85,4.85,0,0,1-1-3.14,3.5,3.5,0,0,1,1.75-2.91,5.07,5.07,0,0,1,6.19,1.3,9.71,9.71,0,0,1,2,5.76,16.51,16.51,0,0,1-2.43,9.9,11.9,11.9,0,0,1-5.26,4.43,9.66,9.66,0,0,1-1.81.54A4,4,0,0,1,152.92,444Z" style="fill:#fff"></path><path d="M88.88,198.47q-2.4-21.42-4.82-42.85l-8.84-9.9c-9.77,12-12.6,26-13.4,35.24-1.32,15-4.48,28-.84,42.64a2.78,2.78,0,0,0,1.2,1.94,3.89,3.89,0,0,0,1.87.24l22.83-1C90.8,216.59,89.88,207.32,88.88,198.47Z" style="fill:#263238"></path><path d="M124.48,186.1c-.29-12.55-.29-19.66-1.88-29.82L99.28,185.4a101,101,0,0,1-1.38,38.45c-.34,1.5-.65,3.3.43,4.4,1.72,1.75,4.71-.15,7.1.38,2.9.65,4.61,4.84,7.53,4.24,3.28-.67,3.74-6.85,7.06-6.39,1.21.17,2.23,1.33,3.44,1.14,1.56-.23,1.91-2.31,1.88-3.89Q124.91,204.92,124.48,186.1Z" style="fill:#263238"></path><path d="M103.35,214.8Z" style="fill:#ffbe9d"></path><path d="M119.05,163.43A21.93,21.93,0,0,0,99,141.23a21.32,21.32,0,0,0-23.08,20.22l-.67,48a4.12,4.12,0,0,0,.85,2.57,19.6,19.6,0,0,0,12.81,7.39,20.54,20.54,0,0,0,12.5-3.19,4.09,4.09,0,0,0,1.91-3.6L103,201.9a.07.07,0,0,1,.07-.07,14.34,14.34,0,0,0,3-.22c2.8-.82,9.9-3.93,11.84-14.64C118.55,183.42,118.92,173.4,119.05,163.43Z" style="fill:#ffbe9d"></path><path d="M104,179.8a13.74,13.74,0,0,1,3.09-.47c.49,0,1-.12,1-.44a2.43,2.43,0,0,0-.29-1.42c-.44-1.16-.89-2.38-1.37-3.66-1.89-5.2-3.25-9.47-3-9.55s1.92,4.09,3.81,9.3c.45,1.28.89,2.5,1.3,3.67a2.76,2.76,0,0,1,.22,1.88,1.2,1.2,0,0,1-.81.67,3.28,3.28,0,0,1-.83.1A12.34,12.34,0,0,1,104,179.8Z" style="fill:#263238"></path><path d="M115,171.14a1.74,1.74,0,0,1-1.73,1.7,1.69,1.69,0,0,1-1.79-1.6,1.74,1.74,0,0,1,1.73-1.71A1.69,1.69,0,0,1,115,171.14Z" style="fill:#263238"></path><path d="M116.24,165.39c-.17.19-1.58.14-3.36.79s-2.93,1.63-3.16,1.58,0-.31.53-.75a8.28,8.28,0,0,1,2.48-1.41,7.23,7.23,0,0,1,2.72-.48C116.07,165.15,116.32,165.29,116.24,165.39Z" style="fill:#263238"></path><path d="M96.88,170.38a1.73,1.73,0,0,1-1.74,1.7,1.67,1.67,0,0,1-1.78-1.6,1.73,1.73,0,0,1,1.73-1.71A1.69,1.69,0,0,1,96.88,170.38Z" style="fill:#263238"></path><path d="M96.92,167.46c-.27,0-1.33-1.07-3.2-1.9s-3.49-1-3.63-1.17.25-.21,1-.17a9,9,0,0,1,3,.8,8.28,8.28,0,0,1,2.48,1.65C97,167.16,97.05,167.45,96.92,167.46Z" style="fill:#263238"></path><path d="M103,201.83s-7.33.41-16.38-5.21c0,0,2.7,9.57,16.47,8.64Z" style="fill:#eb996e"></path><path d="M103.14,184.27a3.49,3.49,0,0,0-3-1.32A3.16,3.16,0,0,0,97.92,184a1.91,1.91,0,0,0-.19,2.21,2.34,2.34,0,0,0,2.48.68,7.17,7.17,0,0,0,2.44-1.36,2.22,2.22,0,0,0,.56-.54.62.62,0,0,0,0-.69" style="fill:#eb996e"></path><path d="M98.42,181c.31,0,.28,2,2,3.49s3.93,1.31,3.94,1.59c0,.13-.5.38-1.42.38a5.21,5.21,0,0,1-3.29-1.21,4.42,4.42,0,0,1-1.56-2.92C98,181.44,98.28,180.94,98.42,181Z" style="fill:#263238"></path><path d="M98,159.91c-.26.48-2.1,0-4.33-.1s-4.1.27-4.33-.22c-.1-.23.27-.66,1.06-1a7.25,7.25,0,0,1,3.32-.63,7.46,7.46,0,0,1,3.28.87C97.76,159.23,98.11,159.69,98,159.91Z" style="fill:#263238"></path><path d="M116.05,159.72c-.34.41-1.64-.06-3.21-.11s-2.91.21-3.2-.24c-.13-.22.08-.64.67-1a4.44,4.44,0,0,1,2.62-.63,4.51,4.51,0,0,1,2.55.91C116,159.08,116.2,159.52,116.05,159.72Z" style="fill:#263238"></path><path d="M100.54,138.76c-1.06-1.64-2.94-2.32-5-2.54-8.44-.89-17.57,4.59-22,11.86s-4.14,17.82-.35,25.42l4.26-2.74c6.53-.69,15.63-16.3,24.36-26.8C102.93,142.65,101.47,140.18,100.54,138.76Z" style="fill:#263238"></path><path d="M116.85,143.53c-3.69-3.83-9.61-8.44-16.77-5.33-1,2.08,1.3,4.63,3.18,6.1,2.74,2.14,4.53,5,6.34,6.51,3.65,3.12,9.38,10.51,9.39,16.54,0,4.66-.31,4.44.06,4.36,0,0,2.39-4.11,2.85-6.6C124.16,152.94,120.54,147.36,116.85,143.53Z" style="fill:#263238"></path><path d="M78.31,170c-.2-.1-8.09-2.81-8.21,5.36s8.11,6.6,8.13,6.37S78.31,170,78.31,170Z" style="fill:#ffbe9d"></path><path d="M75.78,178.59s-.15.1-.39.2a1.41,1.41,0,0,1-1.06,0c-.86-.33-1.57-1.71-1.59-3.19a4.73,4.73,0,0,1,.43-2,1.64,1.64,0,0,1,1.09-1.07.71.71,0,0,1,.83.4c.11.23.06.39.1.41s.18-.14.11-.48a.89.89,0,0,0-.31-.51,1,1,0,0,0-.78-.22,2,2,0,0,0-1.51,1.24,4.9,4.9,0,0,0-.53,2.27c0,1.65.85,3.2,2,3.56a1.51,1.51,0,0,0,1.3-.2C75.76,178.79,75.8,178.6,75.78,178.59Z" style="fill:#eb996e"></path><path d="M95.53,136.22a3.08,3.08,0,0,1,1.65.07,7.05,7.05,0,0,1,3.41,2,5.59,5.59,0,0,1,.7.92,4.37,4.37,0,0,1,.43,1,10.23,10.23,0,0,1,.51,1.7,2.5,2.5,0,0,1-.08,1.64c-.08,0,0-.63-.27-1.56-.13-.47-.35-1-.59-1.62a5.19,5.19,0,0,0-.42-.89,6.23,6.23,0,0,0-.65-.83,7.79,7.79,0,0,0-3.14-2C96.15,136.33,95.53,136.3,95.53,136.22Z" style="fill:#455a64"></path><path d="M134.74,212.64a2.27,2.27,0,0,1-.38-.5c-.24-.34-.59-.84-1-1.52a38.62,38.62,0,0,1-2.83-6c-2-5.25-3.67-12.89-5-21.34s-2.5-16.05-3.37-21.65c-.4-2.73-.73-4.95-1-6.57-.1-.73-.18-1.33-.24-1.79a3.7,3.7,0,0,1,0-.63,3,3,0,0,1,.16.61c.08.46.19,1.05.33,1.78.28,1.61.66,3.83,1.12,6.54.92,5.59,2.16,13.21,3.53,21.63s2.87,16,4.8,21.3a43.28,43.28,0,0,0,2.67,6.05C134.3,211.89,134.78,212.61,134.74,212.64Z" style="fill:#263238"></path><path d="M99.64,142.21a7.37,7.37,0,0,1-.12,1.45,35.17,35.17,0,0,1-.73,3.9,34.81,34.81,0,0,1-5.31,11.92,27.58,27.58,0,0,1-9.79,8.59A21,21,0,0,1,80,169.55c-.45.15-.81.21-1,.27s-.36.07-.37.05a40.23,40.23,0,0,0,4.93-2.13,28.49,28.49,0,0,0,9.55-8.56,37.66,37.66,0,0,0,5.38-11.71c.43-1.61.71-2.92.88-3.84A8.65,8.65,0,0,1,99.64,142.21Z" style="fill:#263238"></path><path d="M83.85,199.42c-2.66-2.58-5.58-4.93-7.71-8s-3.39-6.94-2.22-10.45l-4.77,10.82c.13,8-.76,16.08-.63,24.11,2.89-4.25,6.17-5.49,9.62-7.09s9-.32,12.55,1.07C89.81,206.33,86.5,202,83.85,199.42Z" style="fill:#263238"></path><path d="M75.86,183.71,75,180.34a.5.5,0,0,0-1,0,25.68,25.68,0,0,0-1.09,3.62,10.4,10.4,0,0,0-.23,3.19,4.23,4.23,0,0,0,1.42,2.81,1.48,1.48,0,0,0,1.16.39c.64-.12,1-.83,1.11-1.48A12,12,0,0,0,75.86,183.71Z" style="fill:#e0e0e0"></path><path d="M184,298.65,179.59,292l-7.09-3.56-.27-.19a9.49,9.49,0,0,0-8-1.5c-2.89.77-6.74,1.73-10.09,2.3l-7.63-2.09v14.9l38.5-2.44Z" style="fill:#ffbe9d"></path><path d="M183.74,298.24a10.6,10.6,0,0,0-1.62-1.49c-1.05-.87-2.51-2-4.14-3.32l-1.52-1.18-.05,0h0c-1.58-.29-3-.53-3.93-.68a5.47,5.47,0,0,0-1.58-.16,6.78,6.78,0,0,0,1.52.44c1,.24,2.33.53,3.9.86l-.1-.05,1.52,1.2c1.63,1.28,3.12,2.41,4.22,3.21A10.24,10.24,0,0,0,183.74,298.24Z" style="fill:#eb996e"></path><path d="M180.74,299.54a44.59,44.59,0,0,0-5.54-3.34l-1.35-.74,0,0h-.05a28.25,28.25,0,0,0-4.93-.08,29.82,29.82,0,0,0,4.9.54l-.1,0,1.34.75A43,43,0,0,0,180.74,299.54Z" style="fill:#eb996e"></path><path d="M228.82,256.5a2.93,2.93,0,0,0-3.79.82l-31,42L145,300c-2,.11-4.33,4.08-2.58,6l55.41-.75,32-44.45A2.93,2.93,0,0,0,228.82,256.5Z" style="fill:#e0e0e0"></path><path d="M228.82,256.5a1.53,1.53,0,0,1,.25.14,2.71,2.71,0,0,1,.62.55,3,3,0,0,1,.45,3.07,17.14,17.14,0,0,1-1.31,2l-1.63,2.3-4.06,5.69L198,305.35l-.07.09h-.12l-54.4.78h-1.12l-.08-.08a2.75,2.75,0,0,1-.67-2,4.68,4.68,0,0,1,.52-2,5.56,5.56,0,0,1,1.19-1.62,2.77,2.77,0,0,1,1.86-.87l7.57-.1,14.65-.2,26.72-.33-.18.09c10.09-13.6,18.49-24.93,24.39-32.87l6.86-9.18a3,3,0,0,1,2.77-1,2.19,2.19,0,0,1,1,.37,3.69,3.69,0,0,0-1-.3,2.89,2.89,0,0,0-2.65,1l-6.76,9.24-24.24,33-.07.09H194l-26.71.39-14.64.2-7.58.11a2.28,2.28,0,0,0-1.52.73,5.28,5.28,0,0,0-1.08,1.47,3.05,3.05,0,0,0,.08,3.36l-.2-.09h1l54.41-.71-.18.09,25.32-35L227,264.4l1.66-2.28A18.06,18.06,0,0,0,230,260.2a2.89,2.89,0,0,0-.38-3A3.86,3.86,0,0,0,228.82,256.5Z" style="fill:#263238"></path><path d="M76.4,208.62c-1.94.53-3,1.68-4.44,3.08a27.7,27.7,0,0,0-6.62,10.83c-1.63,4.91-3,25.71-3,31.33s3.54,25.3,4.24,28.81-1.72,6.32-1.33,10.06a111.24,111.24,0,0,0,2.33,11.21l61-2.8,1.77-5.86s-3.6-11.95-2.67-24c.76-10,1-20.79-.88-26.61-2.8-8.88-14-23.49-25.24-32.11,0,0-8.84-1.89-10.83-2.59C84.71,207.82,82.43,207,76.4,208.62Z" style="fill:#1E1E24"></path><path d="M151,285.2,99.54,274.46,98.21,229.8s-1.8-18.19-10.91-19.88l-22,27.33c1.23,13.77.11,39.83,6.44,49.88s12.49,18.11,28.07,17.39,49.94-1,49.94-1Z" style="fill:#1E1E24"></path><path d="M99.64,274.63c.12.1-1.11,1.71-2.15,3.95s-1.49,4.22-1.65,4.19a13.07,13.07,0,0,1,3.8-8.14Z" style="fill:#263238"></path><path d="M150.32,296.53a2,2,0,0,1-.39-.17c-.25-.13-.63-.29-1.13-.5a14,14,0,0,0-4.61-.91,13.34,13.34,0,0,0-7.13,1.84,27.57,27.57,0,0,1-4.17,2.21,10.38,10.38,0,0,1-5.28.33,38.66,38.66,0,0,1-5.6-1.57A24,24,0,0,0,116,296.4a14.82,14.82,0,0,0-3.24.23,21.6,21.6,0,0,0-3.25.91c-2.16.8-4.28,1.87-6.49,2.91-1.11.52-2.24,1-3.42,1.47a13.9,13.9,0,0,1-3.74.89,8.68,8.68,0,0,1-3.93-.47,5,5,0,0,1-2.82-2.89,21.51,21.51,0,0,1-.7-4,6.93,6.93,0,0,0-1.58-3.56c-1.66-2.09-4.23-3.59-5.51-6.29a7.88,7.88,0,0,1-.57-4.25,16.11,16.11,0,0,1,1.16-4,69.38,69.38,0,0,0,3-7.48,11,11,0,0,0,.37-3.81,10.35,10.35,0,0,0-1.09-3.61c-1.1-2.27-2.65-4.25-3.89-6.38a11.81,11.81,0,0,1-2-6.87,19.13,19.13,0,0,1,2.09-6.44,22.94,22.94,0,0,0,2.11-5.83,10,10,0,0,0-.73-5.57c-1.42-3.38-3.7-5.91-5.15-8.48A15.74,15.74,0,0,1,75,219.09a9.3,9.3,0,0,1-.33-3.44,7.17,7.17,0,0,1,1.87-4.33,4.3,4.3,0,0,1,1.35-1,9,9,0,0,0-1.27,1,7.16,7.16,0,0,0-1.74,4.28,9.14,9.14,0,0,0,.35,3.36,16.31,16.31,0,0,0,1.68,3.67c1.45,2.53,3.76,5,5.24,8.49a10.26,10.26,0,0,1,.79,5.77,23.06,23.06,0,0,1-2.12,5.95,18.64,18.64,0,0,0-2,6.29,11.26,11.26,0,0,0,1.94,6.6c1.23,2.09,2.79,4.07,3.93,6.41A10.8,10.8,0,0,1,85.76,266a11.54,11.54,0,0,1-.38,4,67.35,67.35,0,0,1-3,7.53,15.33,15.33,0,0,0-1.12,3.91,7.35,7.35,0,0,0,.52,4c1.17,2.51,3.69,4,5.44,6.19a7.46,7.46,0,0,1,1.69,3.8,20.61,20.61,0,0,0,.67,3.9,4.42,4.42,0,0,0,2.53,2.6,8.27,8.27,0,0,0,3.69.45,21.89,21.89,0,0,0,7-2.3c2.2-1,4.34-2.11,6.53-2.91a22.28,22.28,0,0,1,3.33-.92A15.74,15.74,0,0,1,116,296a24.88,24.88,0,0,1,6.16,1.42,40.37,40.37,0,0,0,5.54,1.59,10.05,10.05,0,0,0,5.11-.28,27.76,27.76,0,0,0,4.14-2.16,13.56,13.56,0,0,1,11.92-.76A9.47,9.47,0,0,1,150.32,296.53Z" style="fill:#fff"></path><path d="M150.56,288.91l-.32-.15-.93-.48a27,27,0,0,0-3.66-1.61,9.8,9.8,0,0,0-6.16-.24c-2.36.7-4.63,2.44-7.42,3.87a11.2,11.2,0,0,1-4.75,1.33,10.39,10.39,0,0,1-5.21-1.19,16.89,16.89,0,0,1-4.32-3.75c-1.31-1.39-2.87-2.78-4.88-3a8.84,8.84,0,0,0-3,.29,23,23,0,0,0-3,1.09c-1,.43-2,.89-3,1.3a12.6,12.6,0,0,1-3.26.92,6,6,0,0,1-3.44-.51,5.77,5.77,0,0,1-2.52-2.49,8.67,8.67,0,0,1-1-3.45,13.51,13.51,0,0,1,.28-3.59c.49-2.36,1.3-4.57,1.72-6.83a22.81,22.81,0,0,0,.4-6.72,13.77,13.77,0,0,0-2.07-6.09c-.56-.9-1.19-1.78-1.71-2.72a8,8,0,0,1-.66-1.46,7.74,7.74,0,0,1-.42-1.53,14.45,14.45,0,0,1,.33-6.06c.46-1.92,1.08-3.71,1.61-5.46a28.53,28.53,0,0,0,1.16-5.13,12.38,12.38,0,0,0-.32-4.77c-.85-3-2.45-5.35-3.53-7.57a15.66,15.66,0,0,1-1.86-6.08,8.07,8.07,0,0,1,.65-4,4.75,4.75,0,0,1,.76-1.19s-.29.4-.66,1.23a8.1,8.1,0,0,0-.55,3.89,16,16,0,0,0,1.91,6c1.1,2.2,2.73,4.57,3.64,7.61a12.75,12.75,0,0,1,.36,4.92,27.8,27.8,0,0,1-1.15,5.2c-.52,1.76-1.13,3.56-1.57,5.44a14,14,0,0,0-.31,5.87,8.21,8.21,0,0,0,.4,1.45,7.66,7.66,0,0,0,.64,1.4c.5.9,1.13,1.77,1.7,2.69a14.31,14.31,0,0,1,2.16,6.29,23.16,23.16,0,0,1-.41,6.88c-.42,2.3-1.23,4.53-1.7,6.83a12.64,12.64,0,0,0-.28,3.45,8.17,8.17,0,0,0,.91,3.24,5.28,5.28,0,0,0,2.29,2.27,5.39,5.39,0,0,0,3.16.47,12,12,0,0,0,3.14-.88c1-.39,2-.86,3-1.28a22.61,22.61,0,0,1,3-1.11,9,9,0,0,1,3.19-.29,8.11,8.11,0,0,1,1.54.4,6.69,6.69,0,0,1,1.37.74,14.5,14.5,0,0,1,2.24,2,17,17,0,0,0,4.19,3.68,10,10,0,0,0,5,1.17,10.91,10.91,0,0,0,4.6-1.26c2.75-1.38,5.06-3.12,7.5-3.81a9.9,9.9,0,0,1,6.31.32,24.82,24.82,0,0,1,3.64,1.71l.9.52A1.33,1.33,0,0,1,150.56,288.91Z" style="fill:#fff"></path><path d="M77.32,295a4,4,0,0,1-.5-.64,6.58,6.58,0,0,1-.55-.81,10.64,10.64,0,0,1-.66-1.16,20.7,20.7,0,0,1-1.71-14.05A53.09,53.09,0,0,1,76.22,272a12.3,12.3,0,0,0,.81-3.46,6.44,6.44,0,0,0-.75-3.52c-1.17-2.22-3.44-3.9-4.58-6.52a16.22,16.22,0,0,1-1.09-7.94c.18-2.59.82-5,1.15-7.34a12.9,12.9,0,0,0,.08-3.39,11.39,11.39,0,0,0-.88-3.06c-.83-1.91-1.8-3.65-2.39-5.36a27.13,27.13,0,0,1-1.63-8.32,22.73,22.73,0,0,1,0-2.31,4,4,0,0,1,.09-.8,4.4,4.4,0,0,1,0,.8c0,.53,0,1.3.07,2.3a28.76,28.76,0,0,0,1.78,8.21c.6,1.67,1.57,3.36,2.44,5.31a11.92,11.92,0,0,1,.94,3.17,13.78,13.78,0,0,1-.06,3.51c-.33,2.37-.95,4.77-1.12,7.32a15.71,15.71,0,0,0,1.06,7.69c1,2.47,3.3,4.14,4.55,6.49a7,7,0,0,1,.8,3.79,13,13,0,0,1-.86,3.59,55.36,55.36,0,0,0-2.35,6.26,20.16,20.16,0,0,0-.55,5.75,20.79,20.79,0,0,0,2,8.11C76.67,294.11,77.37,295,77.32,295Z" style="fill:#fff"></path><path d="M112.65,275.86a5.88,5.88,0,0,0,.51-2.32,7.84,7.84,0,0,0-.57-2.73,21.47,21.47,0,0,0-1.79-3.29,17.42,17.42,0,0,1-2.06-4.12,15.07,15.07,0,0,1-.74-5.25,14.73,14.73,0,0,1,1.34-5.7,39.11,39.11,0,0,0,2.55-5.63,9.15,9.15,0,0,0-.55-5.92,33.3,33.3,0,0,0-2.77-5,38.42,38.42,0,0,1-2.58-4.61,17.4,17.4,0,0,1-1.28-4.43,17.72,17.72,0,0,1,.2-6.63,13.71,13.71,0,0,1,.51-1.74,2.37,2.37,0,0,1,.24-.58s-.25.83-.55,2.36a18.55,18.55,0,0,0,0,6.53,17.13,17.13,0,0,0,1.32,4.32A36.7,36.7,0,0,0,109,235.6a33.92,33.92,0,0,1,2.84,5.1,9.74,9.74,0,0,1,.57,6.26,38.72,38.72,0,0,1-2.58,5.7,14.13,14.13,0,0,0-1.33,5.51,14.79,14.79,0,0,0,.67,5.1,18.23,18.23,0,0,0,2,4.06,20.24,20.24,0,0,1,1.75,3.37,7.57,7.57,0,0,1,.5,2.84,4.81,4.81,0,0,1-.39,1.78A2.11,2.11,0,0,1,112.65,275.86Z" style="fill:#fff"></path><path d="M124.25,278.84s.09-.77.13-2.16a18.11,18.11,0,0,0-.75-5.77,20.65,20.65,0,0,0-1.54-3.73c-.65-1.3-1.42-2.67-2-4.22a11,11,0,0,1-.85-5.17,6.71,6.71,0,0,1,.87-2.68c.47-.82,1.06-1.56,1.52-2.36a6.43,6.43,0,0,0,.51-5.17,14.74,14.74,0,0,0-2.28-4.51c-.93-1.34-1.9-2.58-2.68-3.84a12.54,12.54,0,0,1-1.66-3.77,16.19,16.19,0,0,1-.14-5.92c.1-.69.2-1.23.27-1.59a2.28,2.28,0,0,1,.15-.54,3.33,3.33,0,0,1,0,.56q-.08.63-.18,1.59a17,17,0,0,0,.3,5.81,12.58,12.58,0,0,0,1.66,3.63c.78,1.22,1.76,2.44,2.71,3.79a15,15,0,0,1,2.38,4.66A6.86,6.86,0,0,1,122,253c-.49.84-1.08,1.58-1.52,2.36a6.21,6.21,0,0,0-.82,2.48,10.58,10.58,0,0,0,.8,4.93c.59,1.52,1.35,2.89,2,4.21A21.5,21.5,0,0,1,124,270.8a17.43,17.43,0,0,1,.59,5.89,14.09,14.09,0,0,1-.19,1.6A2.7,2.7,0,0,1,124.25,278.84Z" style="fill:#fff"></path><g style="opacity:0.30000000000000004"><path d="M97.86,227.89c5.14,15.79,4,40.13,13.82,49.1l-12.14-2.53a61.13,61.13,0,0,0,.1-8.58c-1-12.48-1.1-25.17-1.78-38"></path></g><path d="M96.72,222.26a28.32,28.32,0,0,1,.9,3.58,44.45,44.45,0,0,1,.63,4.42c.16,1.76.19,3.79.28,6.06.29,9.11.71,22.19,1.22,38.13l-.17-.19L151,285l.22,0,0,.23c-.37,5.85-.77,12-1.18,18.28v.24h-.24l-6.26.07c-8.94.11-17.67.25-26.09.43q-6.33.13-12.41.33c-4,.11-8,.49-11.92-.12A26.23,26.23,0,0,1,87.53,303a24.06,24.06,0,0,1-4.94-2.7,33.39,33.39,0,0,1-7.42-7.71q-1.5-2.12-2.84-4.22l-.67-1.05c-.21-.36-.39-.73-.59-1.09s-.38-.73-.58-1.09-.29-.76-.44-1.13a43.68,43.68,0,0,1-2.3-8.93,139,139,0,0,1-1.5-15.75c-.23-4.65-.34-8.66-.45-11.93s-.22-5.81-.31-7.54c0-.84-.09-1.5-.12-2s0-.67,0-.67,0,.22.08.66.1,1.11.17,2c.13,1.72.28,4.26.41,7.53s.28,7.28.54,11.93A141.69,141.69,0,0,0,68.12,275a42.3,42.3,0,0,0,2.31,8.84l.43,1.11.57,1.06c.2.36.38.72.58,1.07l.67,1q1.33,2.1,2.84,4.2a33.15,33.15,0,0,0,7.34,7.59,23.77,23.77,0,0,0,4.84,2.63,25.28,25.28,0,0,0,5.49,1.4c3.81.6,7.78.21,11.83.11s8.2-.26,12.41-.35c8.43-.19,17.16-.33,26.1-.44l6.26-.07-.26.24c.41-6.27.81-12.43,1.19-18.28l.21.27L99.5,274.66l-.16,0v-.16c-.43-16-.79-29-1-38.14-.07-2.28-.08-4.3-.23-6.05s-.35-3.23-.56-4.41-.42-2.09-.57-2.69c-.07-.29-.12-.52-.16-.69A.82.82,0,0,1,96.72,222.26Z" style="fill:#263238"></path><polygon points="179.29 394.81 171.65 451.07 191.63 454.35 205.84 404.43 179.29 394.81" style="fill:#ffbe9d"></polygon><path d="M118.71,308.35s85.22-8.1,91.53-2.31,11.59,18.43,9.48,22.64-6.84,18.43-6.84,18.43l-39.26-8.95Z" style="fill:#263238"></path><polygon points="173.63 347.11 157.81 371.23 176.42 383.29 196.61 352.35 173.63 347.11" style="fill:#ffbe9d"></polygon><path d="M67.57,303.94s-7.38,33.69,4.73,47.38,30,13.69,48.44,11.06,62.17-3.55,62.17-3.55-1.95,12-3.38,25.57-1.72,22.22-1.72,22.22l27.39,2.29s15.25-46.44,17.6-55.64,1.56-21.55-6.56-26.14c-6.88-3.88-61.12-18.92-87.09-21.16L125,301.3Z" style="fill:#263238"></path><path d="M196.31,347.65c0,.09-1.06.24-2.68.82a18.44,18.44,0,0,0-2.74,1.27,19.41,19.41,0,0,0-3,2.17,19.17,19.17,0,0,0-2.46,2.75,17.62,17.62,0,0,0-1.55,2.59c-.75,1.56-1,2.61-1.1,2.59a2.51,2.51,0,0,1,.11-.76,12.63,12.63,0,0,1,.65-2,15.44,15.44,0,0,1,1.5-2.72,16.29,16.29,0,0,1,5.6-5.05,15.56,15.56,0,0,1,2.86-1.21,10.69,10.69,0,0,1,2-.44C196,347.62,196.31,347.61,196.31,347.65Z" style="fill:#455a64"></path><path d="M193.06,319.6a7.68,7.68,0,0,1,1.44-2.83,7.53,7.53,0,0,1,2.11-2.38,13.87,13.87,0,0,1-1.68,2.67A13.56,13.56,0,0,1,193.06,319.6Z" style="fill:#455a64"></path><path d="M224,340.34l-.08-.26c-.05-.21-.11-.46-.18-.78-.17-.68-.42-1.69-.83-3a22.11,22.11,0,0,0-1.94-4.42,11.09,11.09,0,0,0-4.42-4.45,121.29,121.29,0,0,0-15.78-5.61c-6.06-1.81-12.74-3.73-19.79-5.59-14.1-3.75-27.05-6.43-36.48-8-4.71-.8-8.54-1.34-11.19-1.71l-3-.42-.79-.12-.27-.06a1.48,1.48,0,0,1,.28,0l.79.07,3.07.32c2.66.3,6.5.79,11.22,1.54a371.22,371.22,0,0,1,36.55,7.85c7.06,1.87,13.74,3.8,19.8,5.64a118,118,0,0,1,15.81,5.74,11.24,11.24,0,0,1,4.5,4.63,22.25,22.25,0,0,1,1.89,4.51,30.7,30.7,0,0,1,.73,3c.06.32.1.58.14.79A1.1,1.1,0,0,1,224,340.34Z" style="fill:#455a64"></path><path d="M193.18,452.89l.67-2.44a38,38,0,0,1-22-9.5L165,455.58l45.14,20.08C211.88,471.34,193.18,452.89,193.18,452.89Z" style="fill:#1E1E24"></path><path d="M165,455.58l1.65-3.57,42.75,20.62s1.61,1.75.74,3Z" style="fill:#e0e0e0"></path><path d="M192.58,452.61c-.11.21-1.26-.18-2.67,0s-2.41.86-2.57.68.75-1.27,2.46-1.49S192.72,452.43,192.58,452.61Z" style="fill:#263238"></path><path d="M175,451a1.33,1.33,0,0,1-1.74.6,1.25,1.25,0,0,1-.61-1.69,1.32,1.32,0,0,1,1.74-.6A1.25,1.25,0,0,1,175,451Z" style="fill:#e0e0e0"></path><path d="M192.31,452.31a3.11,3.11,0,0,1-1-.19,5.51,5.51,0,0,1-2.53-1.35,3.9,3.9,0,0,1-.59-.78,2.3,2.3,0,0,1-.38-1,1.1,1.1,0,0,1,.71-1.11,1.69,1.69,0,0,1,1.36.06,5,5,0,0,1,2.8,4.4l-.67-.09a5.3,5.3,0,0,1,.45-1,5.54,5.54,0,0,1,4.89-2.77,1.69,1.69,0,0,1,.76.15,1,1,0,0,1,.51.67,1.71,1.71,0,0,1-.32,1.3,4.18,4.18,0,0,1-1.73,1.39,7,7,0,0,1-3.1.46,4.25,4.25,0,0,1-1.13-.09,3.34,3.34,0,0,1,1.12-.17,7.34,7.34,0,0,0,2.89-.63,3.61,3.61,0,0,0,1.47-1.26,1.17,1.17,0,0,0,.21-.88c-.05-.25-.27-.33-.68-.33a5,5,0,0,0-4.3,2.48,5.35,5.35,0,0,0-.39.89.35.35,0,0,1-.43.22.37.37,0,0,1-.24-.32,4.51,4.51,0,0,0-2.36-3.87c-.61-.32-1.33,0-1.27.49a3,3,0,0,0,.76,1.54,5.94,5.94,0,0,0,2.28,1.42A3.49,3.49,0,0,1,192.31,452.31Z" style="fill:#263238"></path><path d="M196,455.74a16.9,16.9,0,0,0-3,.21,16.68,16.68,0,0,0-2.73,1.21,3.8,3.8,0,0,1,2.61-1.72A3.88,3.88,0,0,1,196,455.74Z" style="fill:#263238"></path><path d="M198.56,458.61c0,.15-1.24.11-2.65.54s-2.42,1.11-2.51,1a4,4,0,0,1,2.37-1.48A3.86,3.86,0,0,1,198.56,458.61Z" style="fill:#263238"></path><path d="M180,380.57l1.07-2.29a38,38,0,0,1-20.14-13.08l-9.13,13.29,41.12,27.38C195.29,401.9,180,380.57,180,380.57Z" style="fill:#1E1E24"></path><path d="M151.76,378.49l2.23-3.25,38.67,27.53s1.29,2,.22,3.1Z" style="fill:#e0e0e0"></path><path d="M179.42,380.19c-.15.19-1.21-.39-2.63-.42s-2.52.44-2.65.24,1-1.13,2.67-1.06S179.58,380,179.42,380.19Z" style="fill:#263238"></path><path d="M162.36,375.69a1.32,1.32,0,0,1-1.81.3,1.27,1.27,0,0,1-.32-1.78,1.31,1.31,0,0,1,1.81-.29A1.25,1.25,0,0,1,162.36,375.69Z" style="fill:#e0e0e0"></path><path d="M179.2,379.85a2.92,2.92,0,0,1-1-.36,5.57,5.57,0,0,1-2.27-1.75,4,4,0,0,1-.45-.87,2.31,2.31,0,0,1-.2-1.09,1.11,1.11,0,0,1,.89-1,1.69,1.69,0,0,1,1.33.29,5,5,0,0,1,2,4.81l-.64-.2a6.45,6.45,0,0,1,.61-.93,5.58,5.58,0,0,1,5.29-1.9,1.62,1.62,0,0,1,.73.28,1,1,0,0,1,.39.74,1.74,1.74,0,0,1-.54,1.23,4,4,0,0,1-1.94,1.08,7,7,0,0,1-3.13-.07,3.58,3.58,0,0,1-1.1-.28,3.28,3.28,0,0,1,1.13,0,7.88,7.88,0,0,0,3-.13,3.64,3.64,0,0,0,1.66-1,1.22,1.22,0,0,0,.36-.83c0-.26-.21-.38-.62-.44a5,5,0,0,0-4.65,1.71,5.7,5.7,0,0,0-.54.81.33.33,0,0,1-.45.15.34.34,0,0,1-.19-.35,4.48,4.48,0,0,0-1.68-4.21c-.55-.43-1.3-.27-1.33.26a3,3,0,0,0,.49,1.64,5.89,5.89,0,0,0,2,1.79A3.63,3.63,0,0,1,179.2,379.85Z" style="fill:#263238"></path><path d="M182.3,383.86a17.52,17.52,0,0,0-3-.29,16.3,16.3,0,0,0-2.9.73,4.73,4.73,0,0,1,5.88-.44Z" style="fill:#263238"></path><path d="M184.3,387.11c0,.15-1.24-.09-2.7.09s-2.57.69-2.64.55a5.16,5.16,0,0,1,5.34-.64Z" style="fill:#263238"></path></g></svg>
