<svg xmlns="http://www.w3.org/2000/svg" viewBox="0 0 500 500"><g id="freepik--Window--inject-6"><polygon points="150.61 55.92 150.61 237.11 327.31 237.11 440.3 237.11 440.3 55.92 150.61 55.92" style="fill:#fafafa"></polygon><path d="M282.68,84.56S273.26,211.45,439.9,207.78V84.56Z" style="fill:#ebebeb"></path><rect x="150.61" y="66.56" width="289.69" height="17.99" style="fill:#f5f5f5"></rect><rect x="150.61" y="54.5" width="289.69" height="12.5" style="fill:#263238"></rect><circle cx="157.39" cy="61.32" r="1.62" style="fill:#455a64"></circle><circle cx="163.44" cy="61.32" r="1.62" style="fill:#455a64"></circle><circle cx="169.48" cy="61.32" r="1.62" style="fill:#455a64"></circle><path d="M295.45,93.48c0,.09-5.71.17-12.76.17s-12.77-.08-12.77-.17,5.71-.17,12.77-.17S295.45,93.38,295.45,93.48Z" style="fill:#263238"></path><path d="M329.42,93.48c0,.09-5.71.17-12.76.17s-12.77-.08-12.77-.17,5.71-.17,12.77-.17S329.42,93.38,329.42,93.48Z" style="fill:#263238"></path><path d="M363.39,93.48c0,.09-5.71.17-12.76.17s-12.77-.08-12.77-.17,5.71-.17,12.77-.17S363.39,93.38,363.39,93.48Z" style="fill:#263238"></path><path d="M397.67,93.48c0,.09-5.72.17-12.77.17s-12.77-.08-12.77-.17,5.71-.17,12.77-.17S397.67,93.38,397.67,93.48Z" style="fill:#263238"></path><path d="M427.44,97.54s.21,0,.61-.1a2.87,2.87,0,0,0,1.46-.91,2.72,2.72,0,0,0,.59-1.09,5.58,5.58,0,0,0,.09-1.51c-.07-1.07.25-2.46-.72-3.47a2.68,2.68,0,0,0-1.81-.9c-.74,0-1.54,0-2.35,0h-5.2l-11.91,0a2.7,2.7,0,0,0-2.39,1.46,2.8,2.8,0,0,0-.29,1.4V94a5.12,5.12,0,0,0,.09,1.43,2.68,2.68,0,0,0,.67,1.18,2.77,2.77,0,0,0,1.13.69,4.21,4.21,0,0,0,1.33.12l9.73,0,6.56,0,1.78,0,.47,0c.1,0,.16,0,.16,0l-.16,0h-.47l-1.78,0-6.56.06-9.73,0a4.36,4.36,0,0,1-1.42-.12,3.11,3.11,0,0,1-1.27-.78,3,3,0,0,1-.76-1.31,3.32,3.32,0,0,1-.1-.77V92.45a3.26,3.26,0,0,1,.33-1.55,3,3,0,0,1,2.69-1.65h11.91l5.2,0c.82,0,1.59,0,2.37,0a3,3,0,0,1,2.71,2.87c0,.62,0,1.21,0,1.76a5.54,5.54,0,0,1-.13,1.55,2.74,2.74,0,0,1-.64,1.14,2.83,2.83,0,0,1-1.55.88A2.24,2.24,0,0,1,427.44,97.54Z" style="fill:#263238"></path><path d="M182,97.35a5.52,5.52,0,1,1-5.52-5.51A5.52,5.52,0,0,1,182,97.35Z" style="fill:#455a64"></path><path d="M396.43,79.88H188.8a4.32,4.32,0,0,1-4.31-4.32h0a4.31,4.31,0,0,1,4.31-4.31H396.43a4.32,4.32,0,0,1,4.32,4.31h0A4.33,4.33,0,0,1,396.43,79.88Z" style="fill:#fff"></path><path d="M394.29,75a2.77,2.77,0,0,0-.91-1.46,1.85,1.85,0,0,0-1.72-.21,1.79,1.79,0,0,0,0,3.34,1.85,1.85,0,0,0,1.72-.21,2.77,2.77,0,0,0,.91-1.46s.08.18,0,.52a1.94,1.94,0,0,1-.72,1.23,2.16,2.16,0,0,1-2.1.37,2.24,2.24,0,0,1,0-4.24,2.16,2.16,0,0,1,2.1.37,1.94,1.94,0,0,1,.72,1.23C394.37,74.83,394.32,75,394.29,75Z" style="fill:#263238"></path><path d="M395.44,78.18c-.11.1-.58-.2-1.07-.68s-.79-.94-.69-1,.57.21,1.06.68S395.54,78.08,395.44,78.18Z" style="fill:#263238"></path><path d="M253,125.9c0,.14-17.62.26-39.34.26s-39.34-.12-39.34-.26,17.61-.26,39.34-.26S253,125.75,253,125.9Z" style="fill:#263238"></path><path d="M253,140.17c0,.14-17.62.26-39.34.26s-39.34-.12-39.34-.26,17.61-.26,39.34-.26S253,140,253,140.17Z" style="fill:#1E1E24"></path><path d="M220.88,154.44c0,.14-10.41.26-23.26.26s-23.26-.12-23.26-.26,10.41-.26,23.26-.26S220.88,154.3,220.88,154.44Z" style="fill:#263238"></path><circle cx="300.38" cy="217.95" r="12.2" style="fill:#fafafa"></circle><path d="M312.58,218a24.65,24.65,0,0,0-.48-2.95,12,12,0,0,0-15.79-8.28,11.36,11.36,0,0,0-3,1.63,11.5,11.5,0,0,0-2.53,2.54,11.9,11.9,0,0,0,0,14.12,11.29,11.29,0,0,0,2.53,2.54,11.09,11.09,0,0,0,3,1.63,12,12,0,0,0,6.28.54,11.82,11.82,0,0,0,5.06-2.22,12.15,12.15,0,0,0,4.45-6.59,24.25,24.25,0,0,0,.48-3,4.23,4.23,0,0,1,0,.78,5.81,5.81,0,0,1-.07,1,9.3,9.3,0,0,1-.22,1.28,12.35,12.35,0,0,1-9.63,9.19,12.41,12.41,0,0,1-6.53-.52A11.42,11.42,0,0,1,293,228a11.6,11.6,0,0,1-2.64-2.64,12.36,12.36,0,0,1,0-14.72,12.59,12.59,0,0,1,5.79-4.32,12.5,12.5,0,0,1,6.53-.51,12.32,12.32,0,0,1,5.2,2.35A12.16,12.16,0,0,1,312.3,215a8.82,8.82,0,0,1,.22,1.28,5.77,5.77,0,0,1,.07.94A4.16,4.16,0,0,1,312.58,218Z" style="fill:#263238"></path><polygon points="297.86 216.75 302.91 216.75 300.38 220.59 297.86 216.75" style="fill:#263238"></polygon><path d="M214.42,203.54H179a6.47,6.47,0,0,1-6.46-6.47h0a6.46,6.46,0,0,1,6.46-6.46h35.45a6.46,6.46,0,0,1,6.46,6.46h0A6.47,6.47,0,0,1,214.42,203.54Z" style="fill:#ebebeb"></path><path d="M268.76,203.54h-31.7a6.47,6.47,0,0,1-6.47-6.47h0a6.46,6.46,0,0,1,6.47-6.46h31.7a6.46,6.46,0,0,1,6.46,6.46h0A6.47,6.47,0,0,1,268.76,203.54Z" style="fill:#1E1E24"></path><path d="M365.17,133.63c.18-7.88.18-12.35,1.18-18.72L381,133.19a63.54,63.54,0,0,0,.87,24.15c.22.94.41,2.07-.27,2.76-1.08,1.09-3-.1-4.46.24-1.82.4-2.9,3-4.73,2.66-2.06-.42-2.35-4.3-4.43-4-.76.1-1.4.83-2.16.71-1-.14-1.2-1.45-1.18-2.44Z" style="fill:#263238"></path><path d="M363.7,152.65s-6.33,1.56-8.36,9.85-2.79,28.36-2.79,28.36l10.45,0,.67-37.39" style="fill:#1E1E24"></path><path d="M387.52,141.4l3-26.91,5.55-6.21c6.14,7.52,7.91,16.35,8.42,22.12.82,9.41,2.81,17.56.52,26.77a1.74,1.74,0,0,1-.75,1.22,2.32,2.32,0,0,1-1.17.15l-14.34-.61C386.32,152.78,386.9,147,387.52,141.4Z" style="fill:#263238"></path><polygon points="399.92 151.65 396.11 149.65 377.08 150.75 371.6 153.5 386.98 160.12 398.92 153.45 399.92 151.65" style="fill:#ffbe9d"></polygon><path d="M404.63,206.44c0-1.7-3.34-8.17-3.34-8.17s.89-1.8,3.34-7.71c2.07-5,.94-10.82.94-10.82l4.27-23.9-11.41-5.47s-7.76,7-14.66,6.43-7.09-6.5-7.09-6.5l-13,2.35-1.48,36.1,1.45,9.08A201.74,201.74,0,0,0,404.63,206.44Z" style="fill:#1E1E24"></path><path d="M419.17,171.75c-.45-14.51-9.33-15.91-9.33-15.91l-4.22,19.63.16,19.29,13.53-.5C419.5,186.46,419.31,176.33,419.17,171.75Z" style="fill:#1E1E24"></path><path d="M353.88,190.63,355.31,175,358,157a6.6,6.6,0,0,0,2.05-3.3c.27-1.82-.64-12.42-.64-12.42s-1.42-.16-1.95,1.94a43.82,43.82,0,0,0-.69,5l-3-7.74c-.68-1.74-1.81-4.32-2.78-4.22s.27,3.49.51,5,.62,3.68.62,3.68-2.83-6.78-4.11-8.41c-.93-1.19-2.27.17-1.49,1.71,0,0-1.44-1.2-1.56.29s2.77,8.14,2.28,8.26-3.15-5.15-4.09-5.27c-.53-.06-.78.7-.17,2.08s5.14,11.3,6.23,12.84c-1.46,4.8-6.24,21-7.69,31.77a140.5,140.5,0,0,0,18.29,8.23,34.6,34.6,0,0,0,2.32-5.63Z" style="fill:#ffbe9d"></path><path d="M350.65,151.74a2.7,2.7,0,0,1,1.27,0,7.57,7.57,0,0,1,2.85,1.17l-.29.12,0-.12a9,9,0,0,1,1.14-3c.43-.69.79-1.05.83-1a15.35,15.35,0,0,0-1.59,4.05l0,.12-.06.29-.24-.17A12.19,12.19,0,0,0,350.65,151.74Z" style="fill:#eb996e"></path><path d="M346.41,138a31.71,31.71,0,0,1,2.14,4.13,17.72,17.72,0,0,1,1.6,4.37c-.1,0-.86-1.9-1.95-4.21A26.33,26.33,0,0,1,346.41,138Z" style="fill:#eb996e"></path><path d="M351.64,157.31c0-.1,1,.13,2.24.15s2.2-.19,2.23-.08a3.92,3.92,0,0,1-2.24.46A4,4,0,0,1,351.64,157.31Z" style="fill:#eb996e"></path><g style="opacity:0.30000000000000004"><path d="M393.29,197.08c-1.92,1.08-3.88,2.08-5.87,3a13,13,0,0,1-3.08,1.11c-2.23.39-4.49-.35-6.59-1.2a14.62,14.62,0,0,1-4.05-2.21,32.88,32.88,0,0,0,8.19,1,45.88,45.88,0,0,0,5.62-.4c2-.36,3.47-1,5.48-1.31"></path></g><g style="opacity:0.30000000000000004"><path d="M405.66,185.92c0-2.38-1.34-4.52-2-6.81a11.45,11.45,0,0,1,1.9-10,49.29,49.29,0,0,0,.06,9.25c.19,2.29-.1,4.82,0,7.52"></path></g><path d="M378.44,151.65Z" style="fill:#ffbe9d"></path><path d="M368.58,119.4a13.77,13.77,0,0,1,12.61-13.94,13.39,13.39,0,0,1,14.49,12.69l.42,30.15c0,.58.06,2.93-.29,3.39-1.88,2.5-6,3.47-8.83,3.74a12.52,12.52,0,0,1-7.73-2c-.78-.48-.8-2.24-.78-3.15l.19-6.74a0,0,0,0,0-.05,0,9.11,9.11,0,0,1-1.88-.14c-1.76-.52-6.22-2.47-7.43-9.19A133.22,133.22,0,0,1,368.58,119.4Z" style="fill:#ffbe9d"></path><path d="M378,129.68a7.63,7.63,0,0,0-1.94-.3c-.31,0-.6-.07-.65-.28a1.47,1.47,0,0,1,.18-.89c.28-.73.56-1.49.86-2.29a39.07,39.07,0,0,0,1.91-6,38.55,38.55,0,0,0-2.4,5.84l-.81,2.3a1.74,1.74,0,0,0-.14,1.18.74.74,0,0,0,.51.42,1.66,1.66,0,0,0,.52.06A7.61,7.61,0,0,0,378,129.68Z" style="fill:#263238"></path><path d="M372.24,123.76a1.1,1.1,0,0,0,1.09,1.07,1.05,1.05,0,0,0,1.12-1,1.1,1.1,0,0,0-1.09-1.07A1.06,1.06,0,0,0,372.24,123.76Z" style="fill:#263238"></path><path d="M370.35,120.62c.1.13,1,.09,2.11.51s1.83,1,2,1,0-.2-.33-.47a5,5,0,0,0-1.56-.89,4.49,4.49,0,0,0-1.71-.3C370.45,120.48,370.29,120.57,370.35,120.62Z" style="fill:#263238"></path><path d="M383.93,123.41a1.09,1.09,0,0,0,1.09,1.07,1.05,1.05,0,0,0,1.12-1,1.09,1.09,0,0,0-1.08-1.07A1.07,1.07,0,0,0,383.93,123.41Z" style="fill:#263238"></path><path d="M382.47,121.93c.18,0,.84-.67,2-1.2s2.19-.6,2.27-.73-.15-.13-.6-.1a5.68,5.68,0,0,0-1.87.49,5.32,5.32,0,0,0-1.56,1C382.45,121.74,382.39,121.92,382.47,121.93Z" style="fill:#263238"></path><path d="M378.66,143.51s4.6.26,10.28-3.28c0,0-1.7,6-10.34,5.43Z" style="fill:#eb996e"></path><path d="M378.57,132.49a2.17,2.17,0,0,1,1.91-.83,1.91,1.91,0,0,1,1.36.68,1.18,1.18,0,0,1,.12,1.39,1.45,1.45,0,0,1-1.55.42,4.58,4.58,0,0,1-1.54-.85,1.22,1.22,0,0,1-.34-.34.39.39,0,0,1,0-.44" style="fill:#eb996e"></path><path d="M381.53,130.4c-.19,0-.17,1.27-1.26,2.19s-2.46.83-2.47,1,.31.24.89.24a3.24,3.24,0,0,0,2.07-.76,2.74,2.74,0,0,0,1-1.83C381.77,130.71,381.62,130.39,381.53,130.4Z" style="fill:#263238"></path><path d="M381.8,117.19c.16.3,1.31,0,2.72-.06s2.57.17,2.72-.14c.06-.15-.18-.42-.67-.66a4.56,4.56,0,0,0-2.09-.39,4.47,4.47,0,0,0-2.05.55C382,116.76,381.73,117.05,381.8,117.19Z" style="fill:#263238"></path><path d="M370.47,117.07c.21.26,1,0,2-.07s1.82.13,2-.15-.05-.4-.42-.64a2.75,2.75,0,0,0-1.65-.4,2.86,2.86,0,0,0-1.6.57C370.48,116.66,370.37,116.94,370.47,117.07Z" style="fill:#263238"></path><path d="M380.2,103.91a4.05,4.05,0,0,1,3.14-1.6c5.31-.56,11,2.88,13.79,7.45s2.6,11.19.22,16L394.67,124c-4.1-.43-9.81-10.24-15.29-16.83C378.7,106.35,379.62,104.8,380.2,103.91Z" style="fill:#263238"></path><path d="M370,106.9c2.32-2.4,6-5.3,10.53-3.35.61,1.31-.82,2.91-2,3.83-1.73,1.35-2.85,3.13-4,4.1-2.29,2-5.88,6.59-5.89,10.38,0,2.92.19,2.78,0,2.74a18.17,18.17,0,0,1-1.79-4.15C365.37,112.81,367.65,109.31,370,106.9Z" style="fill:#263238"></path><path d="M394.16,123.51c.13-.06,5.08-1.76,5.15,3.37s-5.09,4.15-5.1,4S394.16,123.51,394.16,123.51Z" style="fill:#ffbe9d"></path><path d="M395.75,128.92s.09.06.24.12a.89.89,0,0,0,.67,0,2.24,2.24,0,0,0,1-2,3.08,3.08,0,0,0-.27-1.28,1,1,0,0,0-.69-.67.44.44,0,0,0-.52.25c-.07.14,0,.25-.06.25s-.11-.08-.07-.29a.63.63,0,0,1,.19-.33.7.7,0,0,1,.5-.13,1.26,1.26,0,0,1,.94.78,3,3,0,0,1,.33,1.42,2.31,2.31,0,0,1-1.27,2.24,1,1,0,0,1-.82-.13C395.76,129,395.73,128.92,395.75,128.92Z" style="fill:#eb996e"></path><path d="M383.34,102.31a1.93,1.93,0,0,0-1,0,4.53,4.53,0,0,0-2.14,1.27,4.67,4.67,0,0,0-.44.58,3.54,3.54,0,0,0-.27.62,7.33,7.33,0,0,0-.32,1.07,1.58,1.58,0,0,0,.05,1c.05,0,0-.39.17-1,.08-.29.22-.63.37-1a4.27,4.27,0,0,1,.26-.57,4.79,4.79,0,0,1,.42-.52,4.89,4.89,0,0,1,2-1.27A9.1,9.1,0,0,0,383.34,102.31Z" style="fill:#455a64"></path><path d="M380.77,106.08c.08,0,.26,1.27.82,3.28a23.77,23.77,0,0,0,3.39,7.31,18.29,18.29,0,0,0,5.94,5.38c1.82,1,3.1,1.3,3.07,1.39a2.74,2.74,0,0,1-.9-.16,12.86,12.86,0,0,1-2.34-.91,17.08,17.08,0,0,1-6.2-5.4,21.67,21.67,0,0,1-3.32-7.52,22.25,22.25,0,0,1-.43-2.46A2.65,2.65,0,0,1,380.77,106.08Z" style="fill:#263238"></path><path d="M363.67,197.83a2.27,2.27,0,0,1-.17-.63l-.33-1.81c-.27-1.66-.64-3.86-1.06-6.44l0,.06a26.43,26.43,0,0,1-2.39-8.29,27.44,27.44,0,0,1,1.47-12.35,27.75,27.75,0,0,1,1.54-3.46,6.82,6.82,0,0,1,.73-1.18c.1.05-.91,1.75-1.92,4.76a28.53,28.53,0,0,0-1.3,12.17,27.33,27.33,0,0,0,2.28,8.16v.06c.35,2.6.65,4.8.87,6.47.09.72.15,1.32.21,1.82A2.75,2.75,0,0,1,363.67,197.83Z" style="fill:#263238"></path><path d="M405.48,170.06c.14,0,.32,5.08.41,11.34s0,11.34-.11,11.34-.33-5.07-.41-11.34S405.33,170.07,405.48,170.06Z" style="fill:#263238"></path><path d="M410.87,157a17.23,17.23,0,0,0-2.82,3,17.54,17.54,0,0,0-1.63,3.77,7.23,7.23,0,0,1,4.45-6.76Z" style="fill:#263238"></path><path d="M406.42,194.74l-1,11.79c3.75.39,7.91.69,12.32.93l.9-13.18Z" style="fill:#ffbe9d"></path><path d="M360.63,215.82a21.29,21.29,0,0,0-21.28,21.29h42.57A21.29,21.29,0,0,0,360.63,215.82Z" style="fill:#1E1E24"></path><circle cx="335.4" cy="203.53" r="4.33" style="fill:#455a64"></circle><path d="M150.61,54.5l289.69-.24h.24v.24c0,56.14,0,117.84,0,182.59v.28h-.26l-289.69-.05h-.2v-.21c.12-111.62.2-180.94.2-182.61,0,1.67.08,71,.21,182.61l-.21-.2,289.69-.06-.26.26v0c0-64.75,0-126.45,0-182.59l.24.24Z" style="fill:#263238"></path></g></svg>
